# xmcd
#
# Track frame offsets: 
#        225
#        66320
#        132672
#        195273
#
# Disc length: 3587 seconds
#
# Revision: 1
# Processed by: cddbd v1.5.2PL0 Copyright (c) Steve Scherf et al.
# Submitted via: ExactAudioCopy v1.0b1
#
DISCID=380e0004
DTITLE=Fridrik Karlsson - Total Balance
DYEAR=1997
DGENRE=New Age
TTITLE0=Another World
TTITLE1=Journey
TTITLE2=Beyond the Boundaries
TTITLE3=Fantasy
EXTD=YEAR: 1997
EXTT0=
EXTT1=
EXTT2=
EXTT3=
PLAYORDER=
